<?xml version="1.0" standalone="no"?><!DOCTYPE svg PUBLIC "-//W3C//DTD SVG 1.1//EN" "http://www.w3.org/Graphics/SVG/1.1/DTD/svg11.dtd"><svg t="1705049813587" class="icon" viewBox="0 0 1024 1024" version="1.1" xmlns="http://www.w3.org/2000/svg" p-id="11315" xmlns:xlink="http://www.w3.org/1999/xlink" width="128" height="128"><path d="M718.5 837.5h-462c-11.6 0-21-9.4-21-21v-588c0-11.6 9.4-21 21-21h462c11.6 0 21 9.4 21 21v203.6c0 11.6-9.4 21-21 21s-21-9.4-21-21V249.5h-420v546h420v-79.6c0-11.6 9.4-21 21-21s21 9.4 21 21v100.6c0 11.6-9.4 21-21 21z" p-id="11316" fill="#bfcbd9"></path><path d="M551.3 753.4c-5.4 0-10.7-2.1-14.7-6-5.6-5.6-7.7-13.9-5.2-21.4 11.4-35.2 32.6-96.4 46.9-111l186.3-189.1c21.2-21.5 58.6-19.1 83.4 5.4 11.4 11.2 18.6 25.6 20.4 40.4 2 16.4-3 32-13.8 42.9L668.4 703.7c-14.3 14.6-75.2 36.7-110.3 48.6-2.2 0.7-4.5 1.1-6.8 1.1zM801 453.1c-2.8 0-5.1 0.7-6.5 2.2L608.2 644.4c-4.1 5.1-13.3 27.4-22.8 53.3 25.8-9.9 48.1-19.5 53.3-23.9l186-188.8c2.3-2.3 2.2-6.3 2-8.4-0.7-5.4-3.6-11-8.2-15.5-5.5-5.4-12.3-8-17.5-8zM447.6 411.1h-115c-11.6 0-21-9.4-21-21s9.4-21 21-21h115c11.6 0 21 9.4 21 21s-9.4 21-21 21zM525.7 523.7H332.6c-11.6 0-21-9.4-21-21s9.4-21 21-21h193.1c11.6 0 21 9.4 21 21s-9.4 21-21 21z" p-id="11317" fill="#bfcbd9"></path></svg>