<?xml version="1.0" standalone="no"?><!DOCTYPE svg PUBLIC "-//W3C//DTD SVG 1.1//EN" "http://www.w3.org/Graphics/SVG/1.1/DTD/svg11.dtd"><svg t="1705050001176" class="icon" viewBox="0 0 1024 1024" version="1.1" xmlns="http://www.w3.org/2000/svg" p-id="16583" xmlns:xlink="http://www.w3.org/1999/xlink" width="128" height="128"><path d="M634.56 863.936v158.144l233.28-192.864h-196.064c-17.632 0-37.248 15.424-37.248 34.72z m196.032-775.232H99.296C79.68 88.704 64 109.92 64 129.216v862.016C64 1010.496 77.728 1024 97.344 1024h503.872v-192.832c0-19.296 19.584-36.64 35.296-36.64h233.28V123.424c-1.92-17.344-19.584-38.56-39.2-34.72zM232.64 740.544c-23.52 0-43.136-19.296-43.136-42.464 0-23.136 19.616-42.4 43.136-42.4 23.52 0 43.136 19.264 43.136 42.4 0 21.216-19.616 42.432-43.136 42.432z m0-194.784c-23.52 0-43.136-19.296-43.136-42.432 0-23.136 19.616-42.432 43.136-42.432 23.52 0 43.136 19.296 43.136 42.432 0 23.136-19.616 42.432-43.136 42.432z m0-192.864c-23.52 0-43.136-19.264-43.136-42.432 0-23.136 19.616-42.4 43.136-42.4 23.52 0 43.136 19.264 43.136 42.4 0 21.216-19.616 42.432-43.136 42.432z m472.512 350.976c0 11.584-7.84 19.296-19.616 19.296h-319.584c-11.744 0-19.584-7.712-19.584-19.296v-19.264c0-11.584 7.84-19.296 19.584-19.296h321.568c11.744 0 19.584 7.712 19.584 19.296v19.264h-1.952z m0-192.832c0 11.552-7.84 19.296-19.616 19.296h-319.584c-11.744 0-19.584-7.744-19.584-19.296v-19.296c0-11.552 7.84-19.264 19.584-19.264h321.568c11.744 0 19.584 7.68 19.584 19.264v19.296h-1.952z m0-192.832c0 11.552-7.84 19.264-19.616 19.264h-319.584c-11.744 0-19.584-7.68-19.584-19.264V298.88c0-11.584 7.84-19.296 19.584-19.296h321.568c11.744 0 19.584 7.712 19.584 19.296v19.296h-1.952zM926.656 0H181.632c-27.456 0-47.04 27.008-47.04 53.984h735.232c19.584 0 35.264 19.296 35.264 34.72v653.76c27.456 0 54.912-15.456 54.912-42.432V32.768C956.064 13.504 942.368 0 926.656 0z" p-id="16584" fill="#bfcbd9"></path></svg>