<?xml version="1.0" standalone="no"?><!DOCTYPE svg PUBLIC "-//W3C//DTD SVG 1.1//EN" "http://www.w3.org/Graphics/SVG/1.1/DTD/svg11.dtd"><svg t="1705050119706" class="icon" viewBox="0 0 1024 1024" version="1.1" xmlns="http://www.w3.org/2000/svg" p-id="19067" xmlns:xlink="http://www.w3.org/1999/xlink" width="128" height="128"><path d="M426.12 385.89c-81.61 0-158.92-13.59-217.68-38.26-69.23-29.07-107.36-71.78-107.36-120.26 0-48.48 38.13-91.19 107.36-120.26 58.77-24.67 136.07-38.26 217.68-38.26s158.92 13.59 217.68 38.26c69.23 29.07 107.36 71.78 107.36 120.26 0 48.48-38.13 91.19-107.36 120.26-58.76 24.67-136.07 38.26-217.68 38.26z m0-241.04c-70.7 0-139.31 11.79-188.26 32.34-41.99 17.63-60.78 37.91-60.78 50.18s18.79 32.55 60.78 50.18c48.94 20.55 117.56 32.34 188.26 32.34s139.32-11.79 188.26-32.34c41.99-17.63 60.78-37.91 60.78-50.18s-18.79-32.55-60.78-50.18c-48.94-20.55-117.56-32.34-188.26-32.34zM426.12 648.37c-81.61 0-158.92-13.59-217.68-38.26-69.23-29.07-107.36-71.78-107.36-120.26 0-20.99 17.01-38 38-38s38 17.01 38 38c0 12.28 18.79 32.55 60.78 50.18 48.94 20.55 117.56 32.34 188.26 32.34 6.92 0 13.9-0.11 20.76-0.33 20.99-0.69 38.52 15.8 39.19 36.77 0.67 20.98-15.8 38.52-36.77 39.19a714 714 0 0 1-23.18 0.37zM426.12 910.85c-81.61 0-158.92-13.59-217.68-38.26-69.23-29.07-107.36-71.78-107.36-120.26 0-20.99 17.01-38 38-38s38 17.01 38 38c0 12.28 18.79 32.55 60.78 50.18 48.94 20.55 117.56 32.34 188.26 32.34 6.92 0 13.9-0.11 20.76-0.33 20.99-0.7 38.52 15.8 39.19 36.77 0.67 20.98-15.8 38.52-36.77 39.19a714 714 0 0 1-23.18 0.37z" p-id="19068" fill="#bfcbd9"></path><path d="M140.25 795.87c-22.24 0-40.27-18.03-40.27-40.27V245.29c0-22.24 18.03-40.27 40.27-40.27 22.24 0 40.27 18.03 40.27 40.27V755.6c0 22.24-18.03 40.27-40.27 40.27zM710.9 421.33c-22.24 0-40.27-18.03-40.27-40.27V244.29c0-22.24 18.03-40.27 40.27-40.27 22.24 0 40.27 18.03 40.27 40.27v136.77c0 22.24-18.03 40.27-40.27 40.27zM680.57 877.78H577.86c-30.33 0-55.01-24.68-55.01-55.01V513.96c0-30.33 24.68-55.01 55.01-55.01h277.13c30.33 0 55.01 24.68 55.01 55.01v78.8c0 14.91-12.09 27-27 27s-27-12.09-27-27v-78.8c0-0.56-0.45-1.01-1.01-1.01H577.86c-0.56 0-1.01 0.45-1.01 1.01v308.81c0 0.56 0.45 1.01 1.01 1.01h102.71c14.91 0 27 12.09 27 27s-12.09 27-27 27z" p-id="19069" fill="#bfcbd9"></path><path d="M708.82 726.29h-72.45c-14.36 0-26-11.64-26-26s11.64-26 26-26h72.45c14.36 0 26 11.64 26 26s-11.64 26-26 26zM770.3 632.06H636.36c-14.36 0-26-11.64-26-26s11.64-26 26-26H770.3c14.36 0 26 11.64 26 26s-11.64 26-26 26zM891.55 713.81l-86.28 86.28c-12.48 12.48-78.04 32.85-78.04 32.85-12.48-12.48 20.37-65.56 32.85-78.04l86.28-86.28c12.48-12.48 32.72-12.48 45.2 0 12.47 12.47 12.47 32.71-0.01 45.19z" p-id="19070" fill="#bfcbd9"></path></svg>