<?xml version="1.0" standalone="no"?><!DOCTYPE svg PUBLIC "-//W3C//DTD SVG 1.1//EN" "http://www.w3.org/Graphics/SVG/1.1/DTD/svg11.dtd"><svg t="1705050288996" class="icon" viewBox="0 0 1024 1024" version="1.1" xmlns="http://www.w3.org/2000/svg" p-id="22435" xmlns:xlink="http://www.w3.org/1999/xlink" width="128" height="128"><path d="M272 32c62.528 0 117.184 42.24 132.8 102.848H992V203.52H404.8a137.152 137.152 0 0 1-265.6 0H32V134.848h107.2A137.152 137.152 0 0 1 272 32z m0 68.544a68.544 68.544 0 1 0 0 137.152 68.544 68.544 0 0 0 0-137.152z m480 274.304c62.528 0 117.184 42.304 132.8 102.848H992v68.608h-107.2a137.152 137.152 0 0 1-265.6 0H32V477.696h587.2a137.152 137.152 0 0 1 132.8-102.848z m0 68.608a68.544 68.544 0 1 0 0 137.088 68.544 68.544 0 0 0 0-137.088z m-480 274.24c62.528 0 117.184 42.304 132.8 102.848H992v68.608H404.8a137.152 137.152 0 0 1-265.6 0H32V820.48h107.2a137.152 137.152 0 0 1 132.8-102.848z m0 68.608a68.544 68.544 0 1 0 0 137.152 68.544 68.544 0 0 0 0-137.152z" fill="#bfcbd9" p-id="22436"></path></svg>