<?xml version="1.0" standalone="no"?><!DOCTYPE svg PUBLIC "-//W3C//DTD SVG 1.1//EN" "http://www.w3.org/Graphics/SVG/1.1/DTD/svg11.dtd"><svg t="1705050403007" class="icon" viewBox="0 0 1024 1024" version="1.1" xmlns="http://www.w3.org/2000/svg" p-id="24664" xmlns:xlink="http://www.w3.org/1999/xlink" width="128" height="128"><path d="M567.296 578.048v24.064l-77.312 3.072v-41.472l-31.232-18.432L496.64 479.232l38.912 21.504 116.736-64V308.224l-116.736-64-116.736 64v128.512l29.184 15.872-37.376 65.024-31.744-18.432-110.592 65.024v129.536L378.88 758.784l110.592-65.024v-32.768l77.312-3.072v32.768l94.208 56.832 94.208-56.832v-112.64l-94.208-56.832-93.696 56.832zM479.744 341.504l55.296-30.72 55.296 30.72v61.952l-55.296 30.72-55.296-30.72V341.504zM431.616 660.48L378.88 691.2l-52.736-30.72v-62.464l52.736-30.72 52.736 30.72V660.48z m266.24-2.56l-35.84 22.016-35.84-22.016v-46.592l35.84-22.016 35.84 22.016v46.592z m246.272 12.288l-8.704-36.864c9.216-38.912 9.216-67.584 9.216-110.592 0-39.424 0-80.384-8.704-106.496l7.68-40.96 34.816-41.984-78.336-134.144-47.616 6.656-35.84-12.288c-53.248-53.76-112.64-90.624-176.128-109.056l-27.136-24.064-21.504-50.176H431.616l-21.504 50.176-27.136 24.064c-63.488 18.432-122.368 54.784-176.128 109.056l-35.84 12.288-47.616-6.656L45.056 333.824l25.088 31.232 8.192 36.864c-9.728 38.4-9.728 67.072-9.728 109.568 0 42.496 0.512 64 14.336 85.504l-2.56 50.688-34.304 42.496 78.336 134.656 47.616-6.656 35.84 12.288c53.76 54.272 112.64 90.624 176.128 109.056l27.136 24.064 21.504 50.176h161.792l20.992-41.984 26.112-22.016c63.488-18.432 122.368-55.296 176.128-109.056l41.472-10.752 44.032 12.8 76.288-131.072-35.328-41.472z m-432.128 199.68c-198.656 0-354.304-157.184-354.304-357.888S313.344 154.112 512 154.112c198.656 0 354.304 157.184 354.304 357.888s-155.648 357.888-354.304 357.888z" fill="#bfcbd9" p-id="24665"></path></svg>