<?xml version="1.0" standalone="no"?><!DOCTYPE svg PUBLIC "-//W3C//DTD SVG 1.1//EN" "http://www.w3.org/Graphics/SVG/1.1/DTD/svg11.dtd"><svg t="1705050343659" class="icon" viewBox="0 0 1352 1024" version="1.1" xmlns="http://www.w3.org/2000/svg" p-id="23578" xmlns:xlink="http://www.w3.org/1999/xlink" width="169" height="128"><path d="M90.200136 163.989473h897.762979s2.061176 561.248621 0 775.343873c-0.389278 39.214738-24.19885 80.266069-98.347519 81.616064-224.417351 4.059967-795.701101 0-795.701101 0-47.173721 0-85.330422-37.932118-85.330422-84.637957V85.395302c0-46.783195 38.156701-84.632966 85.330422-84.632966h808.718198c31.504045 0 70.4942 15.611034 85.330422 40.808031L93.914495 43.081314a42.451233 42.451233 0 0 0-30.105391 12.310907 42.478682 42.478682 0 0 0-12.560444 30.003081v42.318978c0 23.404074 15.362745 36.275193 38.951476 36.275193z m156.965007 714.133697c41.582844 0 75.309016-32.483478 75.309016-72.535413 0-40.073146-33.726172-72.556623-75.309016-72.556623-2.14477 0-4.143562 0.449167-6.243416 0.613861 37.113637-92.186451 125.90888-159.499054 232.25406-168.73941V737.481626c-29.218286 9.976489-50.233044 36.538454-50.233044 68.086168 0 40.071898 33.726172 72.555376 75.309016 72.555376 41.626513 0 75.352685-32.483478 75.352686-72.555376 0-31.547714-21.014758-58.109679-50.233044-68.086168V564.905585c106.340189 9.240355 195.140423 76.552958 232.235344 168.73941-2.081139-0.184657-4.084921-0.613861-6.2247-0.613861-41.60156 0-75.309016 32.483478-75.309016 72.53666 0 40.071898 33.707457 72.555376 75.309016 72.555376 41.62277 0 75.348942-32.483478 75.348942-72.555376 0-27.566351-16.156273-51.257394-39.68262-63.519641-36.197836-109.893596-138.196081-191.485954-261.676966-201.321454v-76.147461c57.309913-11.200468 100.467336-59.966235 100.467336-118.461449 0-66.786081-56.214446-120.913149-125.586978-120.913149-69.328862 0-125.543308 54.127069-125.543308 120.913149 0 58.495214 43.132469 107.260981 100.467336 118.461449v76.147461c-123.500848 9.855463-225.479131 91.427858-261.676966 201.321454-23.526348 12.262248-39.687611 35.95329-39.687611 63.539604 0 40.051935 33.731163 72.535413 75.353933 72.535413z m0 0" p-id="23579" fill="#bfcbd9"></path></svg>