<?xml version="1.0" standalone="no"?><!DOCTYPE svg PUBLIC "-//W3C//DTD SVG 1.1//EN" "http://www.w3.org/Graphics/SVG/1.1/DTD/svg11.dtd"><svg t="1705384750158" class="icon" viewBox="0 0 1024 1024" version="1.1" xmlns="http://www.w3.org/2000/svg" p-id="4275" xmlns:xlink="http://www.w3.org/1999/xlink" width="128" height="128"><path d="M585.783079 179.563981c0 99.002844-80.561137 179.563981-178.593364 179.563981-99.002844 0-179.563981-80.561137-179.563981-179.563981s80.561137-179.563981 179.563981-179.563981c98.032227 0.970616 178.593365 80.561137 178.593364 179.563981z m-232.947867 384.363981l205.770616-86.384834c12.618009-4.853081 33.000948-6.794313 46.589574-3.882464l4.85308 0.970616c-10.676777-42.707109-47.56019-50.472038-133.945023-50.472038h-192.181991c-69.88436 0-107.738389-1.941232-131.033175 45.618957 0 0.970616-20.382938 53.383886-41.736493 119.385782-10.676777 33.000948-21.353555 68.913744-30.0891 103.855924-8.735545 34.94218-15.529858 67.943128-16.500474 99.002844v-0.970616 3.882464c0 17.47109 4.853081 33.971564 11.647394 46.589574 12.618009 25.236019 30.0891 40.765877 47.560189 54.354502 31.059716 23.294787 68.913744 39.795261 107.738389 55.325118 118.415166 44.648341 262.066351 70.854976 264.007583 71.825593 3.882464 0.970616 8.735545 0.970616 12.618009 0.970616 32.030332 0 59.207583-22.324171 66.001896-54.354502 6.794313-35.912796-17.47109-70.854976-53.383886-78.619906 0 0-0.970616 0-3.882465-0.970616-19.412322-3.882464-110.650237-22.324171-194.123222-49.501421-41.736493-13.588626-80.561137-29.118483-104.826541-43.677726-7.764929-4.853081-14.559242-8.735545-18.441706-12.618009 1.941232-15.529858 5.823697-36.883412 11.647394-60.178199 8.735545-35.912796 21.353555-76.678673 33.000947-111.620853-10.676777 66.001896-24.265403 155.298578-26.206635 164.034123 1.941232 1.941232 4.853081 2.911848 7.764929 4.853081 22.324171 12.618009 59.207583 28.147867 101.914692 41.736492 0.970616 0 1.941232 0.970616 3.882465 0.970617-0.970616-3.882464-1.941232-6.794313-1.941233-10.676778v-217.418009c0.970616-11.647393 10.676777-26.206635 23.294787-32.030332z m541.603792 259.154502h-2.911849-0.970616s-0.970616 0-0.970616 0.970617l-205.770616 86.384834c-12.618009 5.823697-33.971564 6.794313-46.589573 3.882464l-13.588626-2.911848v0.970616c11.647393 3.882464 22.324171 7.764929 34.94218 11.647393 51.442654 14.559242 107.738389 22.324171 152.38673 27.177251s76.678673 6.794313 77.649289 6.794313h2.911848c34.94218 0 65.03128-28.147867 66.972512-64.060663 1.941232-37.854028-27.177251-68.913744-64.060663-70.854977z m-19.412323-245.565876l-185.387677 77.649289c-8.735545 3.882464-15.529858 14.559242-15.529858 24.265403v193.152606c0 9.706161 6.794313 14.559242 15.529858 10.676778l185.387677-77.64929c8.735545-3.882464 15.529858-14.559242 15.529858-24.265402v-193.152607c0-9.706161-6.794313-14.559242-15.529858-10.676777z m-250.418957 83.472985l-258.183886-62.119431c-9.706161-1.941232-16.500474 3.882464-16.500474 13.588626v194.123223c0 9.706161 7.764929 19.412322 16.500474 21.353554l258.183886 62.119431c9.706161 1.941232 16.500474-3.882464 16.500474-13.588625v-194.123223c0-9.706161-7.764929-19.412322-16.500474-21.353555z m-97.061611 90.267299c0 1.941232 0 3.882464 1.941232 3.882464 1.941232 0.970616 2.911848 0 3.882464-1.941232l0.970616-3.882464-2.911848-0.970616c-1.941232 0-3.882464 0.970616-3.882464 2.911848z m-69.884361-41.736493c0 0.970616-0.970616 0.970616-0.970616 1.941232 0 0-0.970616 0.970616-0.970616 1.941233l-2.911848 4.85308 4.85308 1.941232v-5.823696-1.941233c0.970616-1.941232 0.970616-1.941232 0-2.911848 0.970616-0.970616 0.970616-0.970616 0.970617-1.941232 0 0.970616 0 0.970616-0.970617 1.941232z m-85.414218-25.236019c0 0.970616-0.970616 0.970616-0.970616 1.941232s-0.970616 0.970616-0.970616 1.941233l-2.911848 5.823696 4.85308 1.941233v-5.823697-1.941232c0.970616-2.911848 0.970616-2.911848 0-3.882465 0.970616-0.970616 0.970616-0.970616 0.970617-1.941232 0 0.970616-0.970616 0.970616-0.970617 1.941232z m234.8891 78.619905l15.529858 4.853081 0.970616-3.882464-15.529858-3.882465-0.970616 2.911848z m5.823697-2.911848l4.85308 1.941232-0.970616 2.911849-4.85308-1.941233 0.970616-2.911848z m242.654028-207.711848l-255.272038-61.148815c-9.706161-1.941232-24.265403-0.970616-33.000948 2.911848l-182.475829 76.678673c-8.735545 3.882464-8.735545 8.735545 0.970616 10.676777l255.272038 61.148815c9.706161 1.941232 24.265403 0.970616 33.000948-2.911848l182.475829-76.678673c8.735545-3.882464 8.735545-8.735545-0.970616-10.676777z m-328.068246 198.976303c0 1.941232 0 3.882464 1.941232 3.882464 1.941232 0.970616 2.911848 0 3.882464-1.941232l0.970616-3.882464-2.911848-0.970616c-1.941232 0-3.882464 0.970616-3.882464 2.911848z m-155.298579-66.972512c0 0.970616-0.970616 0.970616-0.970616 1.941232s-0.970616 0.970616-0.970616 1.941233l-2.911848 5.823696 4.85308 1.941233v-5.823697-1.941232c0.970616-2.911848 0.970616-2.911848 0-3.882465 0.970616-0.970616 0.970616-0.970616 0.970617-1.941232 0 0.970616-0.970616 0.970616-0.970617 1.941232z m85.414218 25.236019c0 0.970616-0.970616 0.970616-0.970616 1.941232 0 0-0.970616 0.970616-0.970616 1.941233l-2.911848 4.85308 4.85308 1.941232v-5.823696-1.941233c0.970616-1.941232 0.970616-1.941232 0-2.911848 0.970616-0.970616 0.970616-0.970616 0.970617-1.941232 0 0.970616 0 0.970616-0.970617 1.941232z m149.474882 53.383886l15.529858 4.853081 0.970616-3.882464-15.529858-3.882465-0.970616 2.911848z m5.823697-2.911848l4.85308 1.941232-0.970616 2.911849-4.85308-1.941233 0.970616-2.911848z" fill="#bfcbd9" p-id="4276"></path></svg>